<mxfile host="app.diagrams.net" agent="Mozilla/5.0 (Windows NT 10.0; Win64; x64) AppleWebKit/537.36 (KHTML, like Gecko) Chrome/129.0.0.0 Safari/537.36" version="24.8.0">
  <diagram name="Page-1" id="T6B5zvTTSa3ph36zwlSj">
    <mxGraphModel dx="794" dy="446" grid="1" gridSize="10" guides="1" tooltips="1" connect="1" arrows="1" fold="1" page="1" pageScale="1" pageWidth="850" pageHeight="1100" math="0" shadow="0">
      <root>
        <mxCell id="0" />
        <mxCell id="1" parent="0" />
        <mxCell id="spOKlNdKo6FF8yj_3xVC-12" style="edgeStyle=orthogonalEdgeStyle;rounded=0;orthogonalLoop=1;jettySize=auto;html=1;exitX=0.5;exitY=1;exitDx=0;exitDy=0;entryX=0.5;entryY=0;entryDx=0;entryDy=0;" edge="1" parent="1" source="spOKlNdKo6FF8yj_3xVC-1" target="spOKlNdKo6FF8yj_3xVC-5">
          <mxGeometry relative="1" as="geometry" />
        </mxCell>
        <mxCell id="spOKlNdKo6FF8yj_3xVC-1" value="mulai" style="ellipse;whiteSpace=wrap;html=1;" vertex="1" parent="1">
          <mxGeometry x="80" y="40" width="120" height="80" as="geometry" />
        </mxCell>
        <mxCell id="spOKlNdKo6FF8yj_3xVC-21" style="edgeStyle=orthogonalEdgeStyle;rounded=0;orthogonalLoop=1;jettySize=auto;html=1;exitX=0.5;exitY=1;exitDx=0;exitDy=0;entryX=0;entryY=0.5;entryDx=0;entryDy=0;" edge="1" parent="1" source="spOKlNdKo6FF8yj_3xVC-2" target="spOKlNdKo6FF8yj_3xVC-7">
          <mxGeometry relative="1" as="geometry" />
        </mxCell>
        <mxCell id="spOKlNdKo6FF8yj_3xVC-2" value="apakah lampu hijau?" style="rounded=0;whiteSpace=wrap;html=1;" vertex="1" parent="1">
          <mxGeometry x="80" y="520" width="120" height="60" as="geometry" />
        </mxCell>
        <mxCell id="spOKlNdKo6FF8yj_3xVC-17" style="edgeStyle=orthogonalEdgeStyle;rounded=0;orthogonalLoop=1;jettySize=auto;html=1;exitX=0.5;exitY=1;exitDx=0;exitDy=0;entryX=0;entryY=0.5;entryDx=0;entryDy=0;" edge="1" parent="1" source="spOKlNdKo6FF8yj_3xVC-3" target="spOKlNdKo6FF8yj_3xVC-8">
          <mxGeometry relative="1" as="geometry" />
        </mxCell>
        <mxCell id="spOKlNdKo6FF8yj_3xVC-3" value="apakah lampu kuning?" style="rounded=0;whiteSpace=wrap;html=1;" vertex="1" parent="1">
          <mxGeometry x="80" y="360" width="120" height="60" as="geometry" />
        </mxCell>
        <mxCell id="spOKlNdKo6FF8yj_3xVC-10" style="edgeStyle=orthogonalEdgeStyle;rounded=0;orthogonalLoop=1;jettySize=auto;html=1;exitX=1;exitY=0.5;exitDx=0;exitDy=0;entryX=0;entryY=0.5;entryDx=0;entryDy=0;" edge="1" parent="1" source="spOKlNdKo6FF8yj_3xVC-4" target="spOKlNdKo6FF8yj_3xVC-6">
          <mxGeometry relative="1" as="geometry" />
        </mxCell>
        <mxCell id="spOKlNdKo6FF8yj_3xVC-4" value="apakah lampu merah?" style="rounded=0;whiteSpace=wrap;html=1;" vertex="1" parent="1">
          <mxGeometry x="80" y="260" width="120" height="60" as="geometry" />
        </mxCell>
        <mxCell id="spOKlNdKo6FF8yj_3xVC-11" style="edgeStyle=orthogonalEdgeStyle;rounded=0;orthogonalLoop=1;jettySize=auto;html=1;exitX=0.5;exitY=1;exitDx=0;exitDy=0;entryX=0.5;entryY=0;entryDx=0;entryDy=0;" edge="1" parent="1" source="spOKlNdKo6FF8yj_3xVC-5" target="spOKlNdKo6FF8yj_3xVC-4">
          <mxGeometry relative="1" as="geometry" />
        </mxCell>
        <mxCell id="spOKlNdKo6FF8yj_3xVC-5" value="mengecek lampu&amp;nbsp;&lt;div&gt;lalu&amp;nbsp;&lt;span style=&quot;background-color: initial;&quot;&gt;lintas&lt;/span&gt;&lt;/div&gt;" style="shape=parallelogram;perimeter=parallelogramPerimeter;whiteSpace=wrap;html=1;fixedSize=1;" vertex="1" parent="1">
          <mxGeometry x="70" y="160" width="140" height="60" as="geometry" />
        </mxCell>
        <mxCell id="spOKlNdKo6FF8yj_3xVC-15" style="edgeStyle=orthogonalEdgeStyle;rounded=0;orthogonalLoop=1;jettySize=auto;html=1;exitX=1;exitY=0.5;exitDx=0;exitDy=0;entryX=0;entryY=0.5;entryDx=0;entryDy=0;" edge="1" parent="1" source="spOKlNdKo6FF8yj_3xVC-6" target="spOKlNdKo6FF8yj_3xVC-14">
          <mxGeometry relative="1" as="geometry" />
        </mxCell>
        <mxCell id="spOKlNdKo6FF8yj_3xVC-16" style="edgeStyle=orthogonalEdgeStyle;rounded=0;orthogonalLoop=1;jettySize=auto;html=1;exitX=0.5;exitY=1;exitDx=0;exitDy=0;entryX=1;entryY=0.5;entryDx=0;entryDy=0;" edge="1" parent="1" source="spOKlNdKo6FF8yj_3xVC-6" target="spOKlNdKo6FF8yj_3xVC-3">
          <mxGeometry relative="1" as="geometry" />
        </mxCell>
        <mxCell id="spOKlNdKo6FF8yj_3xVC-6" value="if" style="rhombus;whiteSpace=wrap;html=1;" vertex="1" parent="1">
          <mxGeometry x="240" y="250" width="80" height="80" as="geometry" />
        </mxCell>
        <mxCell id="spOKlNdKo6FF8yj_3xVC-24" style="edgeStyle=orthogonalEdgeStyle;rounded=0;orthogonalLoop=1;jettySize=auto;html=1;exitX=0.5;exitY=1;exitDx=0;exitDy=0;entryX=0.5;entryY=0;entryDx=0;entryDy=0;" edge="1" parent="1" source="spOKlNdKo6FF8yj_3xVC-7" target="spOKlNdKo6FF8yj_3xVC-22">
          <mxGeometry relative="1" as="geometry" />
        </mxCell>
        <mxCell id="spOKlNdKo6FF8yj_3xVC-26" style="edgeStyle=orthogonalEdgeStyle;rounded=0;orthogonalLoop=1;jettySize=auto;html=1;exitX=1;exitY=0.5;exitDx=0;exitDy=0;entryX=1;entryY=0.5;entryDx=0;entryDy=0;" edge="1" parent="1" source="spOKlNdKo6FF8yj_3xVC-7" target="spOKlNdKo6FF8yj_3xVC-5">
          <mxGeometry relative="1" as="geometry">
            <Array as="points">
              <mxPoint x="670" y="640" />
              <mxPoint x="670" y="190" />
            </Array>
          </mxGeometry>
        </mxCell>
        <mxCell id="spOKlNdKo6FF8yj_3xVC-7" value="if" style="rhombus;whiteSpace=wrap;html=1;" vertex="1" parent="1">
          <mxGeometry x="240" y="600" width="80" height="80" as="geometry" />
        </mxCell>
        <mxCell id="spOKlNdKo6FF8yj_3xVC-19" style="edgeStyle=orthogonalEdgeStyle;rounded=0;orthogonalLoop=1;jettySize=auto;html=1;exitX=1;exitY=0.5;exitDx=0;exitDy=0;entryX=0;entryY=0.5;entryDx=0;entryDy=0;" edge="1" parent="1" source="spOKlNdKo6FF8yj_3xVC-8" target="spOKlNdKo6FF8yj_3xVC-18">
          <mxGeometry relative="1" as="geometry" />
        </mxCell>
        <mxCell id="spOKlNdKo6FF8yj_3xVC-20" style="edgeStyle=orthogonalEdgeStyle;rounded=0;orthogonalLoop=1;jettySize=auto;html=1;exitX=0.5;exitY=1;exitDx=0;exitDy=0;entryX=1;entryY=0.5;entryDx=0;entryDy=0;" edge="1" parent="1" source="spOKlNdKo6FF8yj_3xVC-8" target="spOKlNdKo6FF8yj_3xVC-2">
          <mxGeometry relative="1" as="geometry" />
        </mxCell>
        <mxCell id="spOKlNdKo6FF8yj_3xVC-8" value="if" style="rhombus;whiteSpace=wrap;html=1;" vertex="1" parent="1">
          <mxGeometry x="240" y="440" width="80" height="80" as="geometry" />
        </mxCell>
        <mxCell id="spOKlNdKo6FF8yj_3xVC-14" value="berhenti" style="shape=parallelogram;perimeter=parallelogramPerimeter;whiteSpace=wrap;html=1;fixedSize=1;" vertex="1" parent="1">
          <mxGeometry x="360" y="260" width="120" height="60" as="geometry" />
        </mxCell>
        <mxCell id="spOKlNdKo6FF8yj_3xVC-18" value="kurangi kecepatan&lt;div&gt;bersiap untuk berhenti&lt;/div&gt;" style="shape=parallelogram;perimeter=parallelogramPerimeter;whiteSpace=wrap;html=1;fixedSize=1;" vertex="1" parent="1">
          <mxGeometry x="360" y="450" width="160" height="60" as="geometry" />
        </mxCell>
        <mxCell id="spOKlNdKo6FF8yj_3xVC-28" style="edgeStyle=orthogonalEdgeStyle;rounded=0;orthogonalLoop=1;jettySize=auto;html=1;exitX=0.5;exitY=1;exitDx=0;exitDy=0;" edge="1" parent="1" source="spOKlNdKo6FF8yj_3xVC-22" target="spOKlNdKo6FF8yj_3xVC-27">
          <mxGeometry relative="1" as="geometry" />
        </mxCell>
        <mxCell id="spOKlNdKo6FF8yj_3xVC-22" value="lanjutkan perjalanan" style="shape=parallelogram;perimeter=parallelogramPerimeter;whiteSpace=wrap;html=1;fixedSize=1;" vertex="1" parent="1">
          <mxGeometry x="200" y="720" width="160" height="60" as="geometry" />
        </mxCell>
        <mxCell id="spOKlNdKo6FF8yj_3xVC-27" value="selesai" style="ellipse;whiteSpace=wrap;html=1;" vertex="1" parent="1">
          <mxGeometry x="220" y="820" width="120" height="80" as="geometry" />
        </mxCell>
        <mxCell id="spOKlNdKo6FF8yj_3xVC-29" value="YA" style="text;html=1;align=center;verticalAlign=middle;resizable=0;points=[];autosize=1;strokeColor=none;fillColor=none;" vertex="1" parent="1">
          <mxGeometry x="320" y="268" width="40" height="30" as="geometry" />
        </mxCell>
        <mxCell id="spOKlNdKo6FF8yj_3xVC-30" value="TIDAK" style="text;html=1;align=center;verticalAlign=middle;resizable=0;points=[];autosize=1;strokeColor=none;fillColor=none;" vertex="1" parent="1">
          <mxGeometry x="210" y="368" width="60" height="30" as="geometry" />
        </mxCell>
        <mxCell id="spOKlNdKo6FF8yj_3xVC-31" value="YA" style="text;html=1;align=center;verticalAlign=middle;resizable=0;points=[];autosize=1;strokeColor=none;fillColor=none;" vertex="1" parent="1">
          <mxGeometry x="320" y="458" width="40" height="30" as="geometry" />
        </mxCell>
        <mxCell id="spOKlNdKo6FF8yj_3xVC-32" value="TIDAK" style="text;html=1;align=center;verticalAlign=middle;resizable=0;points=[];autosize=1;strokeColor=none;fillColor=none;" vertex="1" parent="1">
          <mxGeometry x="210" y="528" width="60" height="30" as="geometry" />
        </mxCell>
        <mxCell id="spOKlNdKo6FF8yj_3xVC-34" value="YA" style="text;html=1;align=center;verticalAlign=middle;resizable=0;points=[];autosize=1;strokeColor=none;fillColor=none;" vertex="1" parent="1">
          <mxGeometry x="270" y="688" width="40" height="30" as="geometry" />
        </mxCell>
        <mxCell id="spOKlNdKo6FF8yj_3xVC-35" value="TIDAK" style="text;html=1;align=center;verticalAlign=middle;resizable=0;points=[];autosize=1;strokeColor=none;fillColor=none;" vertex="1" parent="1">
          <mxGeometry x="320" y="618" width="60" height="30" as="geometry" />
        </mxCell>
      </root>
    </mxGraphModel>
  </diagram>
</mxfile>
